<svg xmlns="http://www.w3.org/2000/svg" xmlns:xlink="http://www.w3.org/1999/xlink" width="150" viewBox="0 0 150 75" height="75" version="1.0"><defs><clipPath id="d"><path d="M 1.15625 0.90625 L 44.65625 0.90625 L 44.65625 44.40625 L 1.15625 44.40625 Z M 1.15625 0.90625"/></clipPath><clipPath id="c"><path d="M0 0H45V45H0z"/></clipPath><clipPath id="e"><path d="M 24.457031 3.328125 L 46.957031 3.328125 L 46.957031 40.078125 L 24.457031 40.078125 Z M 24.457031 3.328125"/></clipPath><clipPath id="f"><path d="M 32.300781 11.179688 L 39.050781 11.179688 L 39.050781 17.929688 L 32.300781 17.929688 Z M 32.300781 11.179688"/></clipPath><filter x="0%" y="0%" width="100%" xlink:type="simple" xlink:actuate="onLoad" height="100%" id="a" xlink:show="other"><feColorMatrix values="0 0 0 0 1 0 0 0 0 1 0 0 0 0 1 0 0 0 1 0" color-interpolation-filters="sRGB"/></filter><mask id="b"><g filter="url(#a)"><path fill-opacity=".8" d="M-15 -7.5H165V82.5H-15z"/></g></mask></defs><path fill="#FFF" d="M-15 -7.5H165V82.5H-15z"/><path fill="#FFF" d="M-15 -7.5H165V82.5H-15z"/><path fill="#FFF" d="M-15 -7.5H165V82.5H-15z"/><g fill="#D32F23" fill-opacity=".42"><g><g><path d="M 10.15625 -12.1875 C 10.144531 -12.082031 10.101562 -12 10.03125 -11.9375 C 9.96875 -11.882812 9.890625 -11.859375 9.796875 -11.859375 L 5.703125 -11.859375 C 5.628906 -11.859375 5.59375 -11.820312 5.59375 -11.75 L 5.328125 -9.59375 C 5.296875 -9.519531 5.320312 -9.484375 5.40625 -9.484375 L 7.546875 -9.484375 C 7.648438 -9.484375 7.726562 -9.453125 7.78125 -9.390625 C 7.832031 -9.335938 7.847656 -9.257812 7.828125 -9.15625 L 7.484375 -6.265625 C 7.429688 -6.046875 7.304688 -5.9375 7.109375 -5.9375 L 4.96875 -5.9375 C 4.894531 -5.9375 4.859375 -5.898438 4.859375 -5.828125 L 4.1875 -0.328125 C 4.164062 -0.222656 4.117188 -0.140625 4.046875 -0.078125 C 3.984375 -0.0234375 3.910156 0 3.828125 0 L 0.4375 0 C 0.351562 0 0.285156 -0.0234375 0.234375 -0.078125 C 0.179688 -0.140625 0.160156 -0.222656 0.171875 -0.328125 L 1.984375 -15.0625 C 1.992188 -15.164062 2.03125 -15.25 2.09375 -15.3125 C 2.164062 -15.375 2.242188 -15.40625 2.328125 -15.40625 L 10.234375 -15.40625 C 10.335938 -15.40625 10.410156 -15.375 10.453125 -15.3125 C 10.503906 -15.25 10.523438 -15.164062 10.515625 -15.0625 Z M 10.15625 -12.1875" transform="translate(64.352 46.714)"/></g></g></g><g fill="#D32F23" fill-opacity=".42"><g><g><path d="M 0.4375 0 C 0.351562 0 0.285156 -0.0234375 0.234375 -0.078125 C 0.179688 -0.140625 0.160156 -0.222656 0.171875 -0.328125 L 1.984375 -15.0625 C 1.992188 -15.164062 2.03125 -15.25 2.09375 -15.3125 C 2.164062 -15.375 2.242188 -15.40625 2.328125 -15.40625 L 5.71875 -15.40625 C 5.8125 -15.40625 5.878906 -15.375 5.921875 -15.3125 C 5.972656 -15.25 5.992188 -15.164062 5.984375 -15.0625 L 4.1875 -0.328125 C 4.164062 -0.222656 4.117188 -0.140625 4.046875 -0.078125 C 3.984375 -0.0234375 3.910156 0 3.828125 0 Z M 0.4375 0" transform="translate(73.568 46.714)"/></g></g></g><g fill="#D32F23" fill-opacity=".42"><g><g><path d="M 0.234375 0 C 0.0664062 0 -0.015625 -0.0664062 -0.015625 -0.203125 L 0.015625 -0.375 L 3.734375 -7.640625 C 3.753906 -7.679688 3.753906 -7.722656 3.734375 -7.765625 L 1.828125 -15.03125 C 1.804688 -15.050781 1.796875 -15.085938 1.796875 -15.140625 C 1.796875 -15.316406 1.910156 -15.40625 2.140625 -15.40625 L 5.546875 -15.40625 C 5.628906 -15.40625 5.703125 -15.378906 5.765625 -15.328125 C 5.828125 -15.273438 5.863281 -15.203125 5.875 -15.109375 L 6.359375 -12.0625 C 6.367188 -12.007812 6.390625 -11.984375 6.421875 -11.984375 C 6.453125 -11.984375 6.472656 -12.007812 6.484375 -12.0625 L 7.75 -15.109375 C 7.820312 -15.304688 7.953125 -15.40625 8.140625 -15.40625 L 11.53125 -15.40625 C 11.707031 -15.40625 11.796875 -15.335938 11.796875 -15.203125 L 11.75 -15.03125 L 8.03125 -7.765625 C 8.019531 -7.722656 8.019531 -7.679688 8.03125 -7.640625 L 9.9375 -0.375 C 9.957031 -0.34375 9.96875 -0.304688 9.96875 -0.265625 C 9.96875 -0.0859375 9.859375 0 9.640625 0 L 6.265625 0 C 6.179688 0 6.109375 -0.0234375 6.046875 -0.078125 C 5.992188 -0.128906 5.957031 -0.195312 5.9375 -0.28125 L 5.40625 -3.328125 C 5.40625 -3.378906 5.390625 -3.40625 5.359375 -3.40625 C 5.335938 -3.40625 5.316406 -3.378906 5.296875 -3.328125 L 4.03125 -0.28125 C 3.957031 -0.09375 3.820312 0 3.625 0 Z M 0.234375 0" transform="translate(78.693 46.714)"/></g></g></g><g fill="#D32F23" fill-opacity=".42"><g><g><path d="M 0.84375 -4.515625 C 0.738281 -4.515625 0.660156 -4.539062 0.609375 -4.59375 C 0.554688 -4.65625 0.535156 -4.738281 0.546875 -4.84375 L 0.90625 -7.703125 C 0.914062 -7.804688 0.953125 -7.882812 1.015625 -7.9375 C 1.085938 -8 1.164062 -8.03125 1.25 -8.03125 L 7.171875 -8.03125 C 7.273438 -8.03125 7.351562 -8 7.40625 -7.9375 C 7.457031 -7.882812 7.472656 -7.804688 7.453125 -7.703125 L 7.109375 -4.84375 C 7.085938 -4.738281 7.046875 -4.65625 6.984375 -4.59375 C 6.921875 -4.539062 6.835938 -4.515625 6.734375 -4.515625 Z M 0.84375 -4.515625" transform="translate(89.418 46.714)"/></g></g></g><g fill="#D32F23" fill-opacity=".42"><g><g><path d="M 9.046875 -15.15625 C 9.128906 -15.320312 9.257812 -15.40625 9.4375 -15.40625 L 12.78125 -15.40625 C 12.863281 -15.40625 12.929688 -15.375 12.984375 -15.3125 C 13.035156 -15.25 13.054688 -15.164062 13.046875 -15.0625 L 11.234375 -0.328125 C 11.222656 -0.222656 11.179688 -0.140625 11.109375 -0.078125 C 11.046875 -0.0234375 10.972656 0 10.890625 0 L 7.5 0 C 7.414062 0 7.347656 -0.0234375 7.296875 -0.078125 C 7.242188 -0.140625 7.222656 -0.222656 7.234375 -0.328125 L 8.34375 -9.328125 C 8.351562 -9.390625 8.335938 -9.421875 8.296875 -9.421875 C 8.265625 -9.429688 8.234375 -9.414062 8.203125 -9.375 L 6.703125 -7.21875 L 6.453125 -6.8125 L 6.421875 -6.8125 L 5.296875 -9.375 C 5.285156 -9.414062 5.265625 -9.429688 5.234375 -9.421875 C 5.203125 -9.421875 5.179688 -9.390625 5.171875 -9.328125 L 4.0625 -0.328125 C 4.050781 -0.222656 4.015625 -0.140625 3.953125 -0.078125 C 3.898438 -0.0234375 3.820312 0 3.71875 0 L 0.359375 0 C 0.253906 0 0.175781 -0.0234375 0.125 -0.078125 C 0.0703125 -0.140625 0.0507812 -0.222656 0.0625 -0.328125 L 1.875 -15.0625 C 1.882812 -15.164062 1.921875 -15.25 1.984375 -15.3125 C 2.054688 -15.375 2.132812 -15.40625 2.21875 -15.40625 L 5.5625 -15.40625 C 5.738281 -15.40625 5.859375 -15.320312 5.921875 -15.15625 L 7.078125 -12.296875 C 7.109375 -12.234375 7.15625 -12.234375 7.21875 -12.296875 Z M 9.046875 -15.15625" transform="translate(96.743 46.714)"/></g></g></g><g fill="#D32F23" fill-opacity=".42"><g><g><path d="M 6.84375 0 C 6.632812 0 6.539062 -0.101562 6.5625 -0.3125 L 6.515625 -1.984375 C 6.523438 -2.015625 6.515625 -2.039062 6.484375 -2.0625 C 6.460938 -2.082031 6.4375 -2.09375 6.40625 -2.09375 L 4.484375 -2.09375 C 4.410156 -2.09375 4.359375 -2.054688 4.328125 -1.984375 L 3.921875 -0.3125 C 3.867188 -0.101562 3.742188 0 3.546875 0 L 0.203125 0 C -0.015625 0 -0.0976562 -0.117188 -0.046875 -0.359375 L 4.796875 -15.109375 C 4.859375 -15.304688 4.988281 -15.40625 5.1875 -15.40625 L 9.09375 -15.40625 C 9.289062 -15.40625 9.398438 -15.304688 9.421875 -15.109375 L 10.625 -0.359375 L 10.625 -0.3125 C 10.625 -0.101562 10.515625 0 10.296875 0 Z M 5.234375 -5.375 C 5.203125 -5.300781 5.222656 -5.265625 5.296875 -5.265625 L 6.34375 -5.265625 C 6.382812 -5.265625 6.421875 -5.300781 6.453125 -5.375 L 6.359375 -9.4375 C 6.359375 -9.5 6.335938 -9.523438 6.296875 -9.515625 C 6.265625 -9.503906 6.25 -9.476562 6.25 -9.4375 Z M 5.234375 -5.375" transform="translate(108.819 46.714)"/></g></g></g><g fill="#D32F23" fill-opacity=".42"><g><g><path d="M 7.109375 -15.40625 C 8.273438 -15.40625 9.195312 -15.023438 9.875 -14.265625 C 10.5625 -13.515625 10.90625 -12.515625 10.90625 -11.265625 C 10.90625 -10.910156 10.894531 -10.640625 10.875 -10.453125 C 10.75 -9.515625 10.46875 -8.6875 10.03125 -7.96875 C 9.601562 -7.25 9.046875 -6.691406 8.359375 -6.296875 C 7.679688 -5.910156 6.929688 -5.71875 6.109375 -5.71875 L 4.90625 -5.71875 C 4.832031 -5.71875 4.796875 -5.679688 4.796875 -5.609375 L 4.140625 -0.328125 C 4.117188 -0.222656 4.078125 -0.140625 4.015625 -0.078125 C 3.953125 -0.0234375 3.875 0 3.78125 0 L 0.390625 0 C 0.304688 0 0.238281 -0.0234375 0.1875 -0.078125 C 0.132812 -0.140625 0.113281 -0.222656 0.125 -0.328125 L 1.9375 -15.0625 C 1.945312 -15.164062 1.984375 -15.25 2.046875 -15.3125 C 2.117188 -15.375 2.195312 -15.40625 2.28125 -15.40625 Z M 5.59375 -8.90625 C 5.914062 -8.90625 6.1875 -9.023438 6.40625 -9.265625 C 6.632812 -9.515625 6.78125 -9.878906 6.84375 -10.359375 C 6.851562 -10.453125 6.859375 -10.578125 6.859375 -10.734375 C 6.859375 -11.097656 6.773438 -11.375 6.609375 -11.5625 C 6.453125 -11.757812 6.238281 -11.859375 5.96875 -11.859375 L 5.65625 -11.859375 C 5.582031 -11.859375 5.546875 -11.820312 5.546875 -11.75 L 5.21875 -9.015625 C 5.1875 -8.941406 5.210938 -8.90625 5.296875 -8.90625 Z M 5.59375 -8.90625" transform="translate(120.147 46.714)"/></g></g></g><g mask="url(#b)"><g><g clip-path="url(#c)" transform="translate(13 15)"><g clip-path="url(#d)"><path fill="#5695F6" d="M 22.90625 44.40625 C 10.914062 44.40625 1.15625 34.648438 1.15625 22.65625 C 1.15625 10.664062 10.914062 0.90625 22.90625 0.90625 C 34.902344 0.90625 44.65625 10.664062 44.65625 22.65625 C 44.65625 34.648438 34.902344 44.40625 22.90625 44.40625 Z M 22.90625 10.191406 C 16.035156 10.191406 10.441406 15.78125 10.441406 22.65625 C 10.441406 29.53125 16.035156 35.125 22.90625 35.125 C 29.78125 35.125 35.375 29.53125 35.375 22.65625 C 35.375 15.78125 29.78125 10.191406 22.90625 10.191406 Z M 22.90625 10.191406"/></g></g></g></g><path fill="#FFF" d="M 35.671875 4.5 C 28.214844 4.5 22.171875 10.542969 22.171875 18 C 22.171875 25.457031 28.214844 31.5 35.671875 31.5 C 43.128906 31.5 49.171875 25.457031 49.171875 18 C 49.171875 10.542969 43.128906 4.5 35.671875 4.5"/><g clip-path="url(#e)"><path fill="#ED5748" d="M 35.746094 40.078125 C 34.914062 35.980469 33.449219 32.574219 31.675781 29.417969 C 30.359375 27.074219 28.835938 24.914062 27.425781 22.640625 C 26.953125 21.882812 26.546875 21.082031 26.09375 20.292969 C 25.191406 18.722656 24.457031 16.894531 24.503906 14.53125 C 24.550781 12.21875 25.214844 10.363281 26.175781 8.847656 C 27.757812 6.351562 30.402344 4.304688 33.953125 3.769531 C 36.855469 3.328125 39.578125 4.070312 41.507812 5.207031 C 43.085938 6.132812 44.308594 7.367188 45.234375 8.824219 C 46.203125 10.347656 46.871094 12.144531 46.925781 14.488281 C 46.957031 15.691406 46.761719 16.804688 46.484375 17.726562 C 46.207031 18.660156 45.757812 19.441406 45.355469 20.273438 C 44.574219 21.902344 43.597656 23.394531 42.617188 24.886719 C 39.691406 29.332031 36.949219 33.863281 35.746094 40.078125 Z M 35.746094 40.078125" fill-rule="evenodd"/></g><path fill="#FFF" d="M 39.644531 14.503906 C 39.644531 15.027344 39.546875 15.53125 39.347656 16.015625 C 39.148438 16.496094 38.863281 16.921875 38.496094 17.292969 C 38.125 17.664062 37.699219 17.949219 37.21875 18.148438 C 36.738281 18.347656 36.238281 18.449219 35.714844 18.449219 C 35.195312 18.449219 34.695312 18.347656 34.210938 18.148438 C 33.730469 17.949219 33.304688 17.664062 32.9375 17.292969 C 32.570312 16.921875 32.285156 16.496094 32.085938 16.015625 C 31.886719 15.53125 31.789062 15.027344 31.789062 14.503906 C 31.789062 13.980469 31.886719 13.476562 32.085938 12.996094 C 32.285156 12.511719 32.570312 12.085938 32.9375 11.714844 C 33.304688 11.34375 33.730469 11.058594 34.210938 10.859375 C 34.695312 10.660156 35.195312 10.558594 35.714844 10.558594 C 36.238281 10.558594 36.738281 10.660156 37.21875 10.859375 C 37.699219 11.058594 38.125 11.34375 38.496094 11.714844 C 38.863281 12.085938 39.148438 12.511719 39.347656 12.996094 C 39.546875 13.476562 39.644531 13.980469 39.644531 14.503906 Z M 39.644531 14.503906"/><g clip-path="url(#f)"><path fill="#3B88C3" d="M 35.675781 11.179688 C 33.8125 11.179688 32.300781 12.691406 32.300781 14.554688 C 32.300781 16.417969 33.8125 17.929688 35.675781 17.929688 C 37.539062 17.929688 39.050781 16.417969 39.050781 14.554688 C 39.050781 12.691406 37.539062 11.179688 35.675781 11.179688 Z M 32.6875 14.742188 L 33.433594 14.742188 C 33.449219 15.210938 33.53125 15.65625 33.664062 16.054688 L 33.082031 16.054688 C 32.855469 15.664062 32.714844 15.21875 32.6875 14.742188 Z M 35.863281 12.679688 L 35.863281 11.570312 C 36.378906 11.652344 36.832031 12.066406 37.140625 12.679688 Z M 37.296875 13.054688 C 37.441406 13.445312 37.527344 13.890625 37.546875 14.367188 L 35.863281 14.367188 L 35.863281 13.054688 Z M 35.488281 11.570312 L 35.488281 12.679688 L 34.214844 12.679688 C 34.519531 12.066406 34.972656 11.652344 35.488281 11.570312 Z M 35.488281 13.054688 L 35.488281 14.367188 L 33.808594 14.367188 C 33.824219 13.890625 33.914062 13.445312 34.054688 13.054688 Z M 33.433594 14.367188 L 32.6875 14.367188 C 32.714844 13.890625 32.855469 13.445312 33.082031 13.054688 L 33.664062 13.054688 C 33.53125 13.453125 33.449219 13.898438 33.433594 14.367188 Z M 33.808594 14.742188 L 35.488281 14.742188 L 35.488281 16.054688 L 34.054688 16.054688 C 33.914062 15.664062 33.824219 15.21875 33.808594 14.742188 Z M 35.488281 16.429688 L 35.488281 17.539062 C 34.972656 17.457031 34.519531 17.042969 34.214844 16.429688 Z M 35.863281 17.539062 L 35.863281 16.429688 L 37.140625 16.429688 C 36.832031 17.042969 36.378906 17.457031 35.863281 17.539062 Z M 35.863281 16.054688 L 35.863281 14.742188 L 37.546875 14.742188 C 37.527344 15.21875 37.441406 15.664062 37.296875 16.054688 Z M 37.921875 14.742188 L 38.667969 14.742188 C 38.636719 15.21875 38.5 15.664062 38.273438 16.054688 L 37.691406 16.054688 C 37.824219 15.65625 37.902344 15.210938 37.921875 14.742188 Z M 37.921875 14.367188 C 37.902344 13.898438 37.824219 13.453125 37.691406 13.054688 L 38.273438 13.054688 C 38.5 13.445312 38.636719 13.890625 38.667969 14.367188 Z M 38.015625 12.679688 L 37.546875 12.679688 C 37.414062 12.378906 37.246094 12.113281 37.054688 11.894531 C 37.429688 12.085938 37.753906 12.355469 38.015625 12.679688 Z M 34.296875 11.894531 C 34.105469 12.113281 33.941406 12.378906 33.804688 12.679688 L 33.335938 12.679688 C 33.597656 12.355469 33.925781 12.085938 34.296875 11.894531 Z M 33.335938 16.429688 L 33.804688 16.429688 C 33.941406 16.730469 34.105469 16.996094 34.296875 17.21875 C 33.925781 17.023438 33.597656 16.753906 33.335938 16.429688 Z M 37.054688 17.21875 C 37.246094 16.996094 37.414062 16.730469 37.546875 16.429688 L 38.015625 16.429688 C 37.753906 16.753906 37.429688 17.023438 37.054688 17.21875 Z M 37.054688 17.21875"/></g></svg>